<svg width="48" height="48" viewBox="0 0 48 48" fill="none" xmlns="http://www.w3.org/2000/svg">
<path fill-rule="evenodd" clip-rule="evenodd" d="M0 6C0 2.68629 2.68629 0 6 0L42 0C45.3137 0 48 2.68629 48 6V42C48 45.3137 45.3137 48 42 48H6C2.68629 48 0 45.3137 0 42L0 6Z" fill="#EFEDEE"/>
<path fill-rule="evenodd" clip-rule="evenodd" d="M5 7C5 5.89543 5.89543 5 7 5L41 5C42.1046 5 43 5.89543 43 7V35C43 36.1046 42.1046 37 41 37H7C5.89543 37 5 36.1046 5 35L5 7Z" fill="white"/>
<path fill-rule="evenodd" clip-rule="evenodd" d="M11.1598 26.5275L14.0236 24.0854C15.5414 22.791 17.781 22.8128 19.2733 24.1365L21.2583 25.8972C21.6565 26.2504 22.2617 26.2298 22.6349 25.8502L27.1814 21.2266C28.8669 19.5125 31.6727 19.6617 33.167 21.5448L37.1206 26.5275L38 27.7391V29.9879C38 31.0972 37.0972 31.9946 35.9879 31.9879L11.988 31.8432C10.8881 31.8366 10 30.9431 10 29.8432L10.0001 27.7391L11.1598 26.5275Z" fill="#EFEDEE" stroke="#EFEDEE" stroke-linecap="round"/>
<circle cx="14" cy="13" r="3" fill="#EFEDEE"/>
</svg>
